<svg id="Слой_1" data-name="Слой 1" xmlns="http://www.w3.org/2000/svg" viewBox="0 0 547 533.33"><defs><style>.cls-1{fill:#fff;}</style></defs><title>GitHub-Logo.wine</title><path class="cls-1" d="M509.46,562.77c0,2.21-2.54,4-5.74,4-3.64.33-6.17-1.43-6.17-4,0-2.2,2.53-4,5.73-4C506.59,558.47,509.46,560.24,509.46,562.77Zm-34.3-5c-.77,2.21,1.43,4.74,4.74,5.4,2.87,1.11,6.18,0,6.84-2.2s-1.43-4.74-4.74-5.74c-2.87-.77-6.07.33-6.84,2.54Zm48.75-1.87c-3.2.77-5.41,2.86-5.08,5.4.33,2.2,3.2,3.64,6.51,2.87s5.4-2.87,5.07-5.08S527.1,555.6,523.91,555.94Zm72.56-422.61c-153,0-270,116.13-270,269.09,0,122.31,77,227,186.93,263.8,14.11,2.53,19.08-6.18,19.08-13.35,0-6.83-.33-44.55-.33-67.71,0,0-77.2,16.54-93.41-32.86,0,0-12.58-32.1-30.66-40.37,0,0-25.26-17.31,1.76-17,0,0,27.46,2.2,42.57,28.45,24.15,42.57,64.63,30.33,80.4,23.05,2.53-17.64,9.7-29.89,17.64-37.16-61.64-6.84-123.84-15.77-123.84-121.87,0-30.32,8.38-45.54,26-64.95-2.86-7.17-12.24-36.73,2.87-74.88,23.05-7.17,76.09,29.77,76.09,29.77a260.66,260.66,0,0,1,138.52,0s53.05-37.05,76.09-29.77c15.11,38.26,5.74,67.71,2.87,74.88,17.65,19.52,28.45,34.74,28.45,64.95,0,106.43-64.95,114.92-126.6,121.87,10.15,8.71,18.75,25.25,18.75,51.17,0,37.16-.33,83.15-.33,92.19,0,7.17,5.07,15.88,19.08,13.35,110.28-36.62,185-141.27,185-263.58C873.5,249.46,749.43,133.33,596.47,133.33ZM433.69,513.7c-1.43,1.1-1.1,3.64.78,5.73,1.76,1.77,4.3,2.54,5.73,1.1,1.43-1.1,1.1-3.63-.77-5.73C437.66,513,435.13,512.26,433.69,513.7Zm-11.91-8.94c-.77,1.44.33,3.2,2.54,4.31,1.76,1.1,4,.77,4.74-.78s-.33-3.19-2.53-4.3C424.32,503.33,422.56,503.66,421.78,504.76ZM457.52,544c-1.77,1.44-1.11,4.75,1.43,6.84,2.54,2.54,5.73,2.87,7.17,1.11,1.43-1.44.77-4.75-1.44-6.84C462.26,542.59,459,542.26,457.52,544Zm-12.58-16.21c-1.76,1.11-1.76,4,0,6.51s4.75,3.64,6.18,2.54c1.76-1.44,1.76-4.3,0-6.84-1.55-2.54-4.41-3.64-6.18-2.21Z" transform="translate(-326.5 -133.33)"/></svg>